<?xml version="1.0" encoding="utf-8"?>
<!-- Generator: Adobe Illustrator 22.0.1, SVG Export Plug-In . SVG Version: 6.00 Build 0)  -->
<svg version="1.1" id="Layer_1" xmlns="http://www.w3.org/2000/svg" xmlns:xlink="http://www.w3.org/1999/xlink" x="0px" y="0px"
viewBox="0 0 2500 1408" style="enable-background:new 0 0 2500 1408;" xml:space="preserve">
	<style type="text/css">
		.st0{fill:#EFEDF4;}
		.st1{font-family:'ArialMT';}
		.st2{font-size:20px;}
		.st3{font-size:17.3789px;}
		.st4{font-size:20.1733px;}
		.st5{font-size:20.1374px;}
		.st6{font-size:20.1389px;}
		.st7{font-size:20.1385px;}
		.st8{font-size:20.1747px;}
		.st9{font-size:20.1656px;}
		.st10{font-size:20.173px;}
		.st11{font-size:20.141px;}
		.st12{font-size:20.1433px;}
		.st13{font-size:20.1417px;}
		.st14{font-size:20.1492px;}
		.st15{font-size:20.1473px;}
		.st16{font-size:20.1359px;}
		.st17{font-size:20.1469px;}
		.st18{font-size:21.2609px;}
		.st19{font-size:21.1319px;}
		.st20{font-size:22.7962px;}
		.st21{font-size:23.6043px;}
	</style>
	<image style="overflow:visible;enable-background:new    ;" width="2500" height="1408" xlink:href="lumen-min.png" >
	</image>
	
	<polygon class="st0" points="1367,597 1665,588 1673,596 1635,653 1614,658 1367,602 "/>
	<g id ="One" class="phase">
		<g id="1">
			<polygon class="st0" points="197.7,966 130.7,982 118.7,1000 135.7,1047 151.7,1056 225.7,1043 	"/>
			
			<text transform="matrix(1 0 0 1 165.6598 1021.4561)" class="st1 st2">1</text>
			
		</g>
		<g id="2">
			<polygon class="st0" points="205,966 235,1042 308,1033 273,945 	"/>
			
			<text transform="matrix(1 0 0 1 249.3335 1001.333)" class="st1 st3">2</text>
			
		</g>
		<g id="3">
			<polygon class="st0" points="278,944 315,1033 401,1027 326,940 305,936 	"/>
			
			<text transform="matrix(1 0 0 1 329.3335 995.333)" class="st1 st2">3</text>
			
		</g>
		<g id="4">
			<path class="st0" d="M336,941l74,85l26,1l17-83l-74-22c0,0-17,14-43,17C336,940,336,941,336,941z"/>
			
			<text transform="matrix(1 0 0 1 392.3335 966.333)" class="st1 st2">4</text>
			
		</g>
		<g id="5">
			<path class="st0" d="M382,917l74,22l79-56l-43-36l-100,37C392,884,396,902,382,917z"/>
			
			<text transform="matrix(1 0 0 1 442.3335 904.333)" class="st1 st2">5</text>
			
		</g>
		<g id="6">
			
			<path class="st0" d="M335,861c0,0,39-11,54,16c14-2,97-35,97-35l-49-42l-103,61H335z"/>
			
			
			<text transform="matrix(0.9531 -0.3027 0.3027 0.9531 416.0442 849.3495)" class="st1 st2">6</text>
			
		</g>
		<g id="7">
			<path class="st0" d="M319,866c0,0-25,14-31,34c-5,3-44,13-44,13l-16-8l5-92l11-16l10-5L319,866z"/>
			
			<text transform="matrix(0.9531 -0.3027 0.3027 0.9531 262.5446 866.0995)" class="st1 st2">7</text>
			
		</g>
		<g id="8">
			<polygon class="st0" points="260,789 323,860 370,832 307,762 	"/>
			
			<text transform="matrix(0.9531 -0.3027 0.3027 0.9531 315.5446 822.0995)" class="st1 st2">8</text>
			
		</g>
		<g id="9">
			<path class="st0" d="M314,758l64,71l56-33c0,0-72-64-73-64S314,758,314,758z"/>
			
			
			<text transform="matrix(0.9531 -0.3027 0.3027 0.9531 375.5446 788.0995)" class="st1 st2">9</text>
			
			
		</g>
		<g id="10">
			<polygon class="st0" points="368,728 413,768 503,708 471,681 450,681 	"/>
			
			<text transform="matrix(0.9531 -0.3027 0.3027 0.9531 433.5446 730.0995)" class="st1 st2">10</text>
			
		</g>
		<g id="11">
			<path class="st0" d="M418,772l89-61l13,11c0,0-3,15-3,19s-48,75-48,75L418,772z"/>
			
			<text transform="matrix(0.9531 -0.3027 0.3027 0.9531 465.2946 772.8495)" class="st1 st2">11</text>
			
		</g>
		<g id="12">
			<path class="st0" d="M520,749l-45,72l60,52l11-106C546,767,531,766,520,749z"/>
			
			<text transform="matrix(0.9531 -0.3027 0.3027 0.9531 510.5002 806.0995)" class="st1 st2">12</text>
			
		</g>
		<g id="13">
			<path class="st0" d="M556,767l-11,108l102-72l-54-44C593,759,584,768,556,767z"/>
			
			<text transform="matrix(0.9531 -0.3027 0.3027 0.9531 578.2946 808.5995)" class="st1 st2">13</text>
			
		</g>
		<g id="14">
			<path class="st0" d="M602,753l54,42l98-69H618C618,726,615,744,602,753z"/>
			
			<text transform="matrix(0.9531 -0.3027 0.3027 0.9531 646.5446 757.0995)" class="st1 st2">14</text>
			
		</g>
		<g id="15">
			<path class="st0" d="M598,698c0,0,16,10,19,20l130,1l-60-46L598,698z"/>
			
			<text transform="matrix(0.9531 -0.3027 0.3027 0.9531 652.5446 708.0927)" class="st1 st2">15</text>
			
		</g>
		<g id="16">
			<path class="st0" d="M587,696c0,0-19-3-27,1c-6-5-14-12-14-12l85-57l49,40L587,696z"/>
			
			<text transform="matrix(0.9531 -0.3027 0.3027 0.9531 607.5451 672.9999)" class="st1 st2">16</text>
			
		</g>
		<g id="17">
			<polygon class="st0" points="626,625 543,681 513,658 515,644 559,619 588,594 	"/>
			
			<text transform="matrix(0.9531 -0.3027 0.3027 0.9531 565.7946 645.5995)" class="st1 st2">17</text>
			
		</g>
		<g id="18">
			<polygon class="st0" points="701,562 634,620 594,590 648,544 668,541 	"/>
			
			<text transform="matrix(0.9531 -0.3027 0.3027 0.9531 634.5446 589.0995)" class="st1 st2">18</text>
			
		</g>
		<g id="19">
			<path class="st0" d="M728,579c0,0-7,16,5,29c-52,47-55,48-55,48l-40-33l68-58L728,579z"/>
			
			<text transform="matrix(0.9531 -0.3027 0.3027 0.9531 680.0002 621.3307)" class="st1 st2">19</text>
			
		</g>
		<g id="20">
			<path class="st0" d="M739,611c0,0,12,10,35,8c-5,21-18,99-18,99l-71-57L739,611z"/>
			
			<text transform="matrix(0.9531 -0.3027 0.3027 0.9531 726.7946 664.4999)" class="st1 st2">20</text>
			
		</g>
		<g id="21">
			<path class="st0" d="M783,617c0,0,25-8,31-19c9,7,57,42,57,42l-106,78L783,617z"/>
			
			<text transform="matrix(0.9531 -0.3027 0.3027 0.9531 803.5445 654.0995)" class="st1 st2">21</text>
			
		</g>
		<g id="22">
			<polygon class="st0" points="818,593 879,636 927,601 886,552 820,581 	"/>
			
			<text transform="matrix(0.9531 -0.3027 0.3027 0.9531 863.5445 604.0995)" class="st1 st2">22</text>
			
		</g>
		<g id="23">
			<path class="st0" d="M893,549l39,49l44-4l17-55l-26-9c0,0-24-4-37,1C895,546,893,549,893,549z"/>
			
			<text transform="matrix(0.9531 -0.3027 0.3027 0.9531 935.7945 567.4999)" class="st1 st2">23</text>
			
		</g>
		<g id="24">
			<polygon class="st0" points="831,463 891,436 893,436 898,447 928,482 946,488 905,507 	"/>
			
			<text transform="matrix(0.9531 -0.3027 0.3027 0.9531 883.0445 481.6986)" class="st1 st2">24</text>
			
		</g>
		<g id="25">
			<path class="st0" d="M784,490c0,0,16-14,41-25c73,44,73,44,73,44l-47,22L784,490z"/>
			
			<text transform="matrix(0.9531 -0.3027 0.3027 0.9531 831.0001 510.0995)" class="st1 st2">25</text>
			
		</g>
		<g id="26">
			<polygon class="st0" points="728,531 778,494 843,534 790,558 767,558 	"/>
			
			<text transform="matrix(0.9531 -0.3027 0.3027 0.9531 777.5445 537.0995)" class="st1 st2">26</text>
			
		</g>
		<g id="27">
			<polygon class="st0" points="713,459 692,494 697,512 723,529 798,474 	"/>
			
			<text transform="matrix(0.9531 -0.3027 0.3027 0.9531 726.7949 497.0002)" class="st1 st2">27</text>
			
		</g>
		<g id="28">
			<polygon class="st0" points="734,424 717,453 804,469 856,447 	"/>
			
			<text transform="matrix(0.9922 0.1246 -0.1246 0.9922 763.8224 451.8524)" class="st1 st2">28</text>
			
		</g>
		<g id="29">
			<polygon class="st0" points="752,391 735,418 866,440 890,430 882,413 	"/>
			
			<text transform="matrix(0.9921 0.1256 -0.1256 0.9921 789.5803 419.4168)" class="st1 st2">29</text>
			
		</g>
		<g id="30">
			<polygon class="st0" points="771,357 755,384 879,406 865,373 	"/>
			
			<text transform="matrix(0.9903 0.1392 -0.1392 0.9903 806.2307 384.8636)" class="st1 st2">30</text>
			
		</g>
		<g id="31">
			<path class="st0" d="M775,351l8-15c0,0,29-10,26-31c1-2,23-10,23-10l31,72l-88-14V351z"/>
			
			<text transform="matrix(0.9952 -9.773000e-02 9.773000e-02 0.9952 814.0425 343.0376)" class="st1 st2">31</text>
			
		</g>
		<g id="32">
			<path class="st0" d="M752,240l14,44c0,0,30,0,40,15c24-8,24-9,24-9l-21-48L752,240z"/>
			
			<text transform="matrix(0.9531 -0.3027 0.3027 0.9531 784.5445 272.0995)" class="st1 st2">32</text>
			
		</g>
		<g id="33">
			<path class="st0" d="M692,251l53-10l15,45c0,0-20,5-30,15c-49-30-49-29-49-29L692,251z"/>
			
			<text transform="matrix(0.9531 -0.3027 0.3027 0.9531 717.0446 277.0994)" class="st1 st2">33</text>
			
		</g>
		<g id="34">
			<path class="st0" d="M677,277l50,29c0,0-11,18,11,29c-1,5-3,5-3,5l-88-15l28-48H677z"/>
			
			<text transform="matrix(0.9801 0.1984 -0.1984 0.9801 680.5395 315.8423)" class="st1 st2">34</text>
			
		</g>
		<g id="35">
			<polygon class="st0" points="643,329 733,345 717,373 625,360 	"/>
			
			<text transform="matrix(0.9954 9.638000e-02 -9.638000e-02 0.9954 666.7252 355.7243)" class="st1 st2">35</text>
			
		</g>
		<g id="36">
			<polygon class="st0" points="621,364 713,379 695,411 601,396 	"/>
			
			<text transform="matrix(0.9904 0.1383 -0.1383 0.9904 645.8162 391.9076)" class="st1 st2">36</text>
			
		</g>
		<g id="37">
			<polygon class="st0" points="598,401 692,416 674,447 580,432 	"/>
			
			<text transform="matrix(0.9956 9.427001e-02 -9.427001e-02 0.9956 623.2531 430.0433)" class="st1 st2">37</text>
			
		</g>
		<g id="38">
			<polygon class="st0" points="577,437 670,453 649,491 558,466 	"/>
			
			<text transform="matrix(0.9653 0.2612 -0.2612 0.9653 600.4394 465.7991)" class="st1 st2">38</text>
			
		</g>
		<g id="39">
			<path class="st0" d="M555,470l89,27c0,0,6,5-37,35c-2,0-76-40-76-40S551,478,555,470z"/>
			
			<text transform="matrix(0.951 0.3093 -0.3093 0.951 571.8484 500.1771)" class="st1 st2">39</text>
			
		</g>
		<g id="40">
			<polygon class="st0" points="525,497 600,537 564,567 489,525 	"/>
			
			<text transform="matrix(0.7771 -0.6294 0.6294 0.7771 538.2491 543.1237)" class="st1 st2">40</text>
			
		</g>
		<g id="41">
			<polygon class="st0" points="483,531 557,572 529,597 510,608 453,552 	"/>
			
			<text transform="matrix(0.797 -0.604 0.604 0.797 496.413 580.8366)" class="st1 st2">41</text>
			
		</g>
		<g id="42">
			<polygon class="st0" points="447,556 503,610 457,638 402,581 	"/>
			
			<text transform="matrix(0.8663 -0.6339 0.6302 0.7764 448.1276 607.9905)" class="st1 st4">42</text>
			
		</g>
		<g id="43">
			<polygon class="st0" points="393,585 450,640 403,667 347,609 	"/>
			
			<text transform="matrix(0.9175 -0.5571 0.5612 0.8277 394.3191 637.5787)" class="st1 st4">43</text>
			
		</g>
		<g id="44">
			<polygon class="st0" points="293,639 339,614 395,671 347,698 	"/>
			
			<text transform="matrix(0.8446 -0.6625 0.6558 0.7549 338.9138 668.7202)" class="st1 st4">44</text>
			
		</g>
		<g id="45">
			
			<polygon class="st0" points="235,669 285,643 340,702 290,730 		"/>
			
			
			<text transform="matrix(0.9058 -0.5761 0.5783 0.8158 282.1277 699.8008)" class="st1 st4">45</text>
			
		</g>
		<g id="46">
			<polygon class="st0" points="178,701 228,674 283,734 232,762 	"/>
			
			<text transform="matrix(0.9242 -0.546 0.5511 0.8344 224.2814 729.3057)" class="st1 st4">46</text>
			
		</g>
		<g id="47">
			<polygon class="st0" points="73,771 104,741 169,707 224,766 209,776 196,793 	"/>
			
			<text transform="matrix(0.9531 -0.3027 0.3027 0.9531 153.2944 763.4999)" class="st1 st2">47</text>
			
		</g>
		<g id="48">
			<polygon class="st0" points="69,778 191,799 184,807 180,836 63,833 	"/>
			
			<text transform="matrix(0.9912 -0.1324 0.1324 0.9912 112.1945 821.2391)" class="st1 st2">48</text>
			
		</g>
		<g id="49">
			<polygon class="st0" points="62,838 179,842 176,875 55,895 	"/>
			
			<text transform="matrix(0.9912 -0.1324 0.1324 0.9912 102.0252 870.5237)" class="st1 st2">49</text>
			
		</g>
		<g id="50">
			<path class="st0" d="M53.5,901.3l120-20c0,0-1,40-1,41s-18,13-18,13l-107,17L53.5,901.3z"/>
			
			<text transform="matrix(0.9912 -0.1324 0.1324 0.9912 94.1583 923.2189)" class="st1 st2">50</text>
			
		</g>
			
	</g>
	
	<g id ="Two" class="phase">
		<g id="52">
			<polygon class="st0" points="1050,600 1098,537 1145,554 1107,622 1048,601 	"/>
			
			<text transform="matrix(0.9395 0.3425 -0.2017 0.9795 1087.8911 582.0032)" class="st1 st2">52</text>
			
		</g>
		<g id="51">
			<polygon class="st0" points="1005,537 986,590 1017,588 1044,600 1094,535 	"/>
			
			<text transform="matrix(0.9335 0.3585 -0.2185 0.9759 1027.7302 561.499)" class="st1 st2">51</text>
			
		</g>
	
		<g id="53">
			<polygon class="st0" points="1150,556 1110,624 1151,653 1194,575 	"/>
			
			<text transform="matrix(0.9392 0.3434 -0.1967 0.9805 1139.8364 603.6838)" class="st1 st2">53</text>
			
		</g>
		<g id="54">
			<polygon class="st0" points="1199,576 1246,594 1203,677 1178,672 1156,657 	"/>
			
			<text transform="matrix(0.9375 0.3642 -0.2401 0.9707 1191.0752 623.5041)" class="st1 st5">54</text>
			
		</g>
		<g id="55">
			<polygon class="st0" points="1252,597 1298,616 1261,691 1208,679 1251,597 	"/>
			
			<text transform="matrix(0.9637 0.2876 -0.3717 0.9284 1243.3433 641.2693)" class="st1 st6">55</text>
			
		</g>
		<g id="56">
			<path class="st0" d="M1303,618c0,0,19,10,51,14c-11,30-32,74-32,74l-56-12L1303,618z"/>
			
			<text transform="matrix(0.9821 0.2166 -0.1052 0.9945 1299.9852 662.0292)" class="st1 st7">56</text>
			
		</g>
		<g id="57">
			<polygon class="st0" points="1361,634 1414,647 1383,722 1328,709 	"/>
			
			<text transform="matrix(0.9496 0.3179 -0.2211 0.9752 1361.7755 674.5457)" class="st1 st8">57</text>
			
		</g>
		<g id="58">
			<polygon class="st0" points="1422,648 1476,661 1446,736 1390,723 	"/>
			
			<text transform="matrix(0.9858 0.1805 -6.035000e-02 0.9982 1421.4746 692.7461)" class="st1 st9">58</text>
			
		</g>
		<g id="59">
			<polygon class="st0" points="1481,663 1536,676 1509,753 1452,739 	"/>
			
			<text transform="matrix(0.9823 0.1954 -9.122001e-02 0.9958 1484.4912 708.1141)" class="st1 st10">59</text>
			
		</g>
		<g id="60">
			<polygon class="st0" points="1543,677 1599,690 1571,768 1514,755 	"/>
			
			
			<text transform="matrix(0.9579 0.3044 -0.1948 0.9808 1548.0009 721.8562)" class="st1 st11">60</text>
			
			
		</g>
		<g id="61">
			<polygon class="st0" points="1604,692 1662,705 1636,784 1578,770 	"/>
			
			<text transform="matrix(0.9847 0.1992 -6.324001e-02 0.998 1609.4937 738.0023)" class="st1 st12">61</text>
			
		</g>
		<g id="62">
			<polygon class="st0" points="1668,707 1724,720 1700,798 1642,786 	"/>
			
			<text transform="matrix(0.9612 0.2932 -0.189 0.982 1671.5046 753.1706)" class="st1 st13">62</text>
			
		</g>
		<g id="63">
			<polygon class="st0" points="1732,723 1788,736 1766,816 1708,802 	"/>
			
			<text transform="matrix(0.9787 0.2239 -0.1066 0.9943 1734.5691 770.8182)" class="st1 st14">63</text>
			
		</g>
		<g id="64">
			<polygon class="st0" points="1796,738 1853,751 1833,832 1772,818 	"/>
			
			<text transform="matrix(0.9589 0.2984 -0.1918 0.9814 1802.9709 788.0911)" class="st1 st15">64</text>
			
		</g>
		<g id="65">
			<polygon class="st0" points="1860,753 1916,765 1899,848 1838,833 	"/>
			
			<text transform="matrix(0.9946 0.1495 -1.087000e-02 0.9999 1866.3804 806.3141)" class="st1 st16">65</text>
			
		</g>
		<g id="66">
			<path class="st0" d="M1924,768c0,0,58,13,80,43c-80,53-80,53-80,53s-14-16-20-14c-2,1,19-82,19-82H1924z"/>
			
			<text transform="matrix(0.8829 0.478 -0.3139 0.9495 1932.4764 819.8527)" class="st1 st17">66</text>
			
		</g>
		<g id="67">
			<polygon class="st0" points="1929,869 2010,817 2052,859 1965,905 	"/>
			
			<text transform="matrix(0.9228 0.3854 -0.2296 0.9733 1982.2585 861.7419)" class="st1 st2">67</text>
			
		</g>
		<g id="68">
			<polygon class="st0" points="1970,909 2058,864 2097,901 2010,951 1970,910 	"/>
			
			
			<text transform="matrix(0.9906 0.1367 1.723000e-02 0.9998 2026.6532 906.5368)" class="st1 st2">68</text>
			
			
		</g>
		<g id="69">
			<path class="st0" d="M2018,957l76-42c0,0,6,26,25,34c-8,22-31,81-31,81l-71-72L2018,957z"/>
			
			<text transform="matrix(0.874 -0.4859 0.6145 0.7889 2073.7012 972.1113)" class="st1 st2">69</text>
			
		</g>
		<g id="71">
			<path class="st0" d="M2178,960l27,90l63-23l12-28l-80-65c0,0-5,17-20,23C2178,956,2178,960,2178,960z"/>
			
			<text transform="matrix(0.8696 0.4937 -0.6391 0.7691 2212.5325 990.3057)" class="st1 st2">71</text>
			
		</g>
		<g id="72">
			<path class="st0" d="M2186,900l10-17l113,45l-25,64l-84-67C2200,925,2190,903,2186,900z"/>
			
			<text transform="matrix(0.864 0.4311 -0.5207 0.8537 2232.2644 935.1583)" class="st1 st18">72</text>
			
		</g>
		<g id="73">
			<polygon class="st0" points="2198,876 2214,839 2327,884 2312,922 	"/>
			
			<text transform="matrix(0.8313 0.4912 -0.5799 0.8147 2252.5859 882.0899)" class="st1 st18">73</text>
			
		</g>
		<g id="74">
			<polygon class="st0" points="2234,798 2345,841 2331,878 2218,834 	"/>
			
			<text transform="matrix(0.8705 0.4179 -0.5077 0.8615 2268.1812 840.7364)" class="st1 st18">74</text>
			
		</g>
		<g id="75">
			<polygon class="st0" points="2251,758 2363,798 2348,835 2235,791 	"/>
			
			<text transform="matrix(0.8741 0.4102 -0.5001 0.866 2284.9253 796.6962)" class="st1 st18">75</text>
			
		</g>
		<g id="76">
			<polygon class="st0" points="2272,716 2380,758 2367,792 2254,751 2269,716 	"/>
			
			<text transform="matrix(0.8995 0.3509 -0.4411 0.8974 2301.2058 754.871)" class="st1 st18">76</text>
			
		</g>
		<g id="77">
			<polygon class="st0" points="2288,677 2275,710 2381,751 2406,698 	"/>
			
			<text transform="matrix(0.87 0.4188 -0.5086 0.861 2318.3716 708.6237)" class="st1 st18">77</text>
			
		</g>
		<g id="78">
			<polygon class="st0" points="2275,636 2377,634 2403,690 2287,671 	"/>
			
			<text transform="matrix(0.9951 -9.898000e-02 9.499001e-02 0.9955 2321.3755 660.9813)" class="st1 st2">78</text>
			
		</g>
		<g id="79">
			<polygon class="st0" points="2257,593 2358,593 2375,626 2271,630 2256,594 	"/>
			
			<text transform="matrix(0.9955 -9.477000e-02 9.078000e-02 0.9959 2306.8289 618.1016)" class="st1 st2">79</text>
			
		</g>
		<g id="80">
			<polygon class="st0" points="2238,551 2339,548 2355,584 2253,587 	"/>
			
			
			<text transform="matrix(0.9979 -6.544000e-02 6.143999e-02 0.9981 2290.3879 573.6375)" class="st1 st2">80</text>
			
			
		</g>
		<g id="81">
			<polygon class="st0" points="2221,509 2320,507 2336,541 2235,545 2220,509 	"/>
			
			<text transform="matrix(0.999 -4.471000e-02 4.070000e-02 0.9992 2273.2068 530.5928)" class="st1 st2">81</text>
			
		</g>
		<g id="82">
			<path class="st0" d="M2229,476l62-32l25,55l-95,5C2221,504,2238,496,2229,476z"/>
			
			<text transform="matrix(0.9991 4.360087e-02 -4.760000e-02 0.9989 2262.7478 487.9837)" class="st1 st19">82</text>
			
		</g>
		<g id="83">
			<path class="st0" d="M2180,452l33-61l50,18l23,28l-63,33C2223,470,2212,455,2180,452z"/>
			
			<text transform="matrix(0.8584 -0.513 0.6437 0.7653 2224.5896 442.3423)" class="st1 st2">83 </text>
			
		</g>
		<g id="84">
			<path class="st0" d="M2203,391l-32,61c0,0-18-1-29,15c-4-1-42-57-42-57l103-20V391z"/>
			
			<text transform="matrix(0.9835 -0.1808 0.3033 0.9529 2140.6868 433.8673)" class="st1 st2">84 </text>
			
		</g>
		<g id="85">
			<polygon class="st0" points="2047,419 2091,410 2136,474 2089,482 	"/>
			
			<text transform="matrix(0.8827 -0.4699 0.4057 0.914 2080.7114 457.865)" class="st1 st2">85 </text>
			
		</g>
		<g id="86">
			<polygon class="st0" points="1994,429 2037,420 2081,482 2034,492 	"/>
			
			<text transform="matrix(0.8845 -0.4666 0.4023 0.9155 2028.3329 466.9451)" class="st1 st2">86 </text>
			
		</g>
		<g id="87">
			<polygon class="st0" points="1939,437 1986,429 2027,492 1979,500 1938,438 	"/>
			
			<text transform="matrix(0.9134 -0.4072 0.341 0.9401 1976.3969 474.468)" class="st1 st2">87</text>
			
		</g>
		<g id="88">
			<polygon class="st0" points="1884,447 1929,439 1973,502 1925,511 	"/>
			
			<text transform="matrix(0.908 -0.419 0.3532 0.9355 1921.8004 484.2065)" class="st1 st2">88</text>
			
		</g>
		<g id="89">
			<polygon class="st0" points="1831,457 1877,448 1917,512 1869,522 	"/>
			
			<text transform="matrix(0.904 -0.4276 0.3621 0.9321 1868.1805 493.7096)" class="st1 st2">89</text>
			
		</g>
		<g id="90">
			<polygon class="st0" points="1775,465 1822,458 1860,522 1813,531 1773,466 	"/>
			
			<text transform="matrix(0.8877 -0.4603 0.3959 0.9183 1812.8907 503.767)" class="st1 st2">90</text>
			
		</g>
		<g id="91">
			<polygon class="st0" points="1719,475 1767,467 1804,532 1756,542 	"/>
			
			<text transform="matrix(0.924 -0.3824 0.3155 0.9489 1757.9745 512.53)" class="st1 st2">91</text>
			
		</g>
		<g id="92">
			<polygon class="st0" points="1662,485 1712,477 1749,543 1687,554 	"/>
			
			<text transform="matrix(0.9731 -0.2305 0.2044 0.9789 1694.5499 518.5828)" class="st1 st2">92</text>
			
		</g>
		<g id="93">
			<polygon class="st0" points="1602,487 1655,486 1678,554 1615,556 	"/>
			
			<text transform="matrix(0.9932 -0.1166 0.128 0.9918 1629.269 525.2402)" class="st1 st2">93</text>
			
		</g>
		<g id="94">
			<polygon class="st0" points="1545,489 1594,488 1609,557 1556,559 1544,490 	"/>
			
			<text transform="matrix(0.9943 -0.1066 0.1181 0.993 1564.8191 527.8517)" class="st1 st2">94</text>
			
		</g>
		<g id="95">
			<polygon class="st0" points="1484,491 1537,489 1548,559 1495,561 	"/>
			
			<text transform="matrix(0.9973 -7.395000e-02 8.541000e-02 0.9963 1506.0676 530.1241)" class="st1 st2">95</text>
			
		</g>
		<g id="96">
			<polygon class="st0" points="1424,493 1476,492 1487,561 1433,563 	"/>
			
			<text transform="matrix(0.9947 -0.1029 0.1143 0.9934 1444.2638 533.1333)" class="st1 st2">96</text>
			
		</g>
		<g id="97">
			<polygon class="st0" points="1366,495 1417,494 1426,563 1372,564 	"/>
			
			<text transform="matrix(0.9979 -6.479999e-02 7.627000e-02 0.9971 1388.4669 535.1999)" class="st1 st2">97</text>
			
		</g>
		<g id="98">
			<polygon class="st0" points="1306,496 1360,496 1366,566 1313,566 	"/>
			
			<text transform="matrix(0.9957 -9.291000e-02 0.1044 0.9945 1329.0483 538.0831)" class="st1 st2">98</text>
			
		</g>
		<g id="99">
			<polygon class="st0" points="1262,498 1300,498 1306,568 1273,569 1232,552 	"/>
			
			<text transform="matrix(0.998 -6.354000e-02 7.501000e-02 0.9972 1268.0465 540.4351)" class="st1 st2">99</text>
			
		</g>
		<g id="100">
			<polygon class="st0" points="1111,503 1255,498 1227,549 1112,505 	"/>
			
			<text transform="matrix(0.9434 0.3317 -0.4683 0.8836 1181.4233 516.8235)" class="st1 st2">100</text>
			
		</g>
		<g id="70">
			<path class="st0" d="M2126,954c0,0,19,10,46,6c26,91,26,91,26,91l-8,6l-93-21L2126,954z"/>
			
			<text transform="matrix(0.4044 -0.9146 0.9607 0.2776 2153.7319 1003.202)" class="st1 st2">70</text>
			
		</g>
		<g id="101">
			<polygon class="st0" points="2078,518 2089,548 2189,546 2175,510 2159,502 	"/>
			
			<text transform="matrix(0.959 -0.1127 0.1167 0.9932 2119.3528 539.2853)" class="st1 st18">101</text>
			
		</g>
		<g id="114">
			<polygon class="st0" points="1981,546 1990,533 2072,518 2088,562 1988,566 	"/>
			
			<text transform="matrix(0.9974 -7.276999e-02 7.277999e-02 0.9974 2016.7115 554.2988)" class="st1 st2">114</text>
			
		</g>
		<g id="115">
			<polygon class="st0" points="1840,561 1918,546 1939,553 1949,590 1847,592 	"/>
			
			<text transform="matrix(0.9974 -7.276999e-02 7.277999e-02 0.9974 1876.8584 579.7522)" class="st1 st2">115</text>
			
		</g>
		<g id="117">
			<polygon class="st0" points="1839,618 1819,652 1917,688 1936,657 	"/>
			
			<text transform="matrix(0.9183 0.396 -0.5497 0.8353 1856.4893 652.8533)" class="st1 st2">117</text>
			
		</g>
		<g id="118">
			<polygon class="st0" points="1817,655 1788,699 1884,722 1901,717 1914,695 	"/>
			
			<text transform="matrix(0.9399 0.3414 -0.4998 0.8662 1827.6981 691.1611)" class="st1 st2">118</text>
			
		</g>
		<g id="119">
			<polygon class="st0" points="1705,631 1798,668 1782,696 1689,677 1681,665 	"/>
			
			<text transform="matrix(0.9088 0.4172 -0.569 0.8223 1722.5747 665.5266)" class="st1 st2">119</text>
			
		</g>
		<g id="120">
			<polygon class="st0" points="1729,593 1824,630 1803,662 1707,626 	"/>
			
			<text transform="matrix(0.932 0.3624 -0.5191 0.8547 1748.6587 629.7308)" class="st1 st2">120</text>
			
		</g>
		<g id="121">
			<polygon class="st0" points="1730,588 1749,577 1835,561 1844,598 1829,625 1730,590 	"/>
			
			<text transform="matrix(0.9774 0.2115 -0.3784 0.9256 1778.9136 595.9301)" class="st1 st2">121</text>
			
		</g>
		<g id="113">
			<polygon class="st0" points="1992,572 2090,569 2104,607 1999,603 	"/>
			
			<text transform="matrix(0.9974 -7.276999e-02 7.277999e-02 0.9974 2027.6387 596.2994)" class="st1 st2">113</text>
			
		</g>
		<g id="116">
			<path class="st0" d="M1851,598l101-1c0,0,5,38-12,53c-2,1-98-36-98-36L1851,598z"/>
			
			<text transform="matrix(0.9682 0.25 -0.3909 0.9205 1880.5074 617.9042)" class="st1 st2">116</text>
			
		</g>
		<g id="112">
			<polygon class="st0" points="2001,608 2108,613 2118,645 2115,652 2000,636 	"/>
			
			<text transform="matrix(1 -8.800000e-03 3.903000e-02 0.9992 2040.1833 633.9699)" class="st1 st2">112</text>
			
		</g>
		<g id="111">
			<path class="st0" d="M2000,640l113,18l-19,36l-106-29C1988,665,1994,654,2000,640z"/>
			
			<text transform="matrix(0.9632 0.2687 -0.4248 0.9053 2032.183 667.3116)" class="st1 st2">111</text>
			
		</g>
		<g id="110">
			<polygon class="st0" points="1985,669 2090,701 2071,738 1969,698 	"/>
			
			<text transform="matrix(0.8585 0.5129 -0.6482 0.7615 2013.4154 700.1189)" class="st1 st2">110</text>
			
		</g>
		<g id="109">
			<path class="st0" d="M1968,702l99,39l-25,50c0,0-56-48-81-49c-3-6-10-14-10-14l14-26H1968z"/>
			
			<text transform="matrix(0.7918 0.6108 -0.7336 0.6795 1991.3054 731.9599)" class="st1 st2">109</text>
			
		</g>
		<g id="102">
			<polygon class="st0" points="2090,558.2 2104,593.2 2204,590.2 2189,554.2 	"/>
			
			<text transform="matrix(0.9618 -8.518346e-02 8.822000e-02 0.9961 2133.9016 582.0486)" class="st1 st18">102</text>
			
		</g>
		<g id="103">
			<polygon class="st0" points="2107,597 2121,632 2222,630 2208,593 	"/>
			
			<text transform="matrix(0.965 -3.485744e-02 3.610000e-02 0.9994 2150.5686 621.3263)" class="st1 st18">103</text>
			
		</g>
		<g id="104">
			<polygon class="st0" points="2124,638 2226,635 2240,665 2224,692 2123,655 	"/>
			
			<text transform="matrix(0.9756 0.237 -0.4692 0.8831 2160.4746 660.9644)" class="st1 st20">104</text>
			
		</g>
		<g id="105">
			<polygon class="st0" points="2103,693 2207,732 2223,696 2120,658 2103,692 	"/>
			
			<text transform="matrix(0.8682 0.3533 -0.5976 0.8018 2140.5498 693.9885)" class="st1 st21">105</text>
			
		</g>
		<g id="106">
			<polygon class="st0" points="2083,732 2186,772 2205,738 2101,697 	"/>
			
			<text transform="matrix(0.8587 0.3759 -0.6184 0.7858 2122.6936 737.0743)" class="st1 st21">106</text>
			
		</g>
		<g id="107">
			<polygon class="st0" points="2081,738 2185,777 2167,814 2062,772 2079,738 	"/>
			
			<text transform="matrix(0.8433 0.4093 -0.6488 0.761 2104.9746 775.7243)" class="st1 st21">107</text>
			
		</g>
		<g id="108">
			<polygon class="st0" points="2047,796 2123,870 2140,870 2165,819 2058,776 	"/>
			
			<text transform="matrix(0.7464 0.567 -0.7856 0.6187 2088.1499 811.601)" class="st1 st21">108</text>
			
		</g>
	</g>
	</svg>
